<?xml version="1.0" encoding="iso-8859-1"?>
<!-- Uploaded to: SVG Repo, www.svgrepo.com, Generator: SVG Repo Mixer Tools -->
<svg height="800px" width="800px" version="1.1" id="Layer_1" xmlns="http://www.w3.org/2000/svg" xmlns:xlink="http://www.w3.org/1999/xlink" 
	 viewBox="0 0 503.544 503.544" xml:space="preserve">
<g transform="translate(7 1)">
	<path style="fill:#FFE079;" d="M261.8,191.077c17.067,0,42.667,25.6,51.2,34.133c8.533,8.533,25.6,0,25.6,25.6
		c0,3.413-0.853,5.973-0.853,7.68c-2.56,9.387-11.093,9.387-16.213,9.387c-5.973,0-41.813-8.533-41.813,17.067
		c0,17.067,25.6,17.067,25.6,17.067v34.133c0,0-34.987-8.533-59.733-34.133v34.133c0,0-17.067,8.533-8.533,42.667
		c-51.2-42.667-34.133-68.267-34.133-68.267s-16.213,8.533-34.133,34.133c-17.067-34.133-17.067-59.733,0-76.8
		c0,0-8.533-8.533-17.067-8.533c8.533-34.133,43.52-34.133,43.52-34.133s-17.067-17.067-8.533-25.6c8.533-8.533,24.747,0,24.747,0
		s3.413-25.6,17.067-25.6s17.067,17.067,17.067,17.067H261.8z"/>
	<path style="fill:#C49AE9;" d="M244.733,336.144v162.133c-108.373,0-196.267-87.893-196.267-196.267v-42.667h102.4
		c8.533,0,17.067,8.533,17.067,8.533c-17.067,17.067-17.067,42.667,0,76.8c17.92-25.6,34.133-34.133,34.133-34.133
		S185,336.144,236.2,378.81C227.667,344.677,244.733,336.144,244.733,336.144z M441,46.01v213.333H338.6l-0.853-0.853
		c0.853-2.56,0.853-4.267,0.853-7.68c0-25.6-17.067-17.067-25.6-25.6c-8.533-8.533-34.133-34.133-51.2-34.133h-17.067V71.61
		C372.733,71.61,441,46.01,441,46.01z"/>
	<path style="fill:#ECF4F7;" d="M441,45.157L441,45.157c0,0.853-68.267,26.453-196.267,26.453S48.467,46.01,48.467,46.01V3.344
		c0,0,51.2,34.133,196.267,34.133S441,3.344,441,3.344V45.157z"/>
	<path style="fill:#7EE1E6;" d="M244.733,71.61v119.467c0,0-3.413-17.067-17.067-17.067c-13.653,0-17.067,25.6-17.067,25.6
		s-16.213-8.533-24.747,0c-8.533,8.533,8.533,25.6,8.533,25.6s-34.987,0-43.52,34.133h-102.4V46.01
		C48.467,46.01,116.733,71.61,244.733,71.61z M441,259.344v42.667c0,108.373-87.893,196.267-196.267,196.267V336.144V302.01
		c24.747,25.6,59.733,34.133,59.733,34.133V302.01c0,0-25.6,0-25.6-17.067c0-25.6,35.84-17.067,41.813-17.067
		c5.12,0,13.653,0,16.213-9.387l0.853,0.853H441z"/>
</g>
<path style="fill:#51565F;" d="M251.733,503.544C140.8,503.544,51.2,413.944,51.2,303.01V81.144c0-2.56,1.707-4.267,4.267-4.267
	c2.56,0,4.267,1.707,4.267,4.267v174.933h64c2.56,0,4.267,1.707,4.267,4.267s-1.707,4.267-4.267,4.267h-64v38.4
	c0,104.107,83.627,189.44,187.733,192v-81.067c0-2.56,1.707-4.267,4.267-4.267s4.267,1.707,4.267,4.267v81.067
	c104.107-2.56,187.733-87.893,187.733-192v-38.4h-64c-2.56,0-4.267-1.707-4.267-4.267s1.707-4.267,4.267-4.267h64V52.984
	C424.96,58.957,361.813,76.024,256,76.877v64c0,2.56-1.707,4.267-4.267,4.267s-4.267-1.707-4.267-4.267v-64
	C122.88,76.024,57.174,52.13,53.76,51.277c-1.707-0.853-2.56-2.56-2.56-4.267V4.344c0-1.707,0.853-3.413,2.56-3.413
	c1.707,0,3.413-0.853,4.267,0c0.853,0,52.053,33.28,193.707,33.28S445.44,0.93,445.44,0.93c1.707-1.707,4.267-0.853,5.973,0.853
	s0.853,4.267-0.853,5.973C448,9.464,396.8,42.744,251.733,42.744c-117.76,0-174.08-22.187-192-31.573v32.427
	c13.653,4.267,80.213,24.747,192,24.747c114.347,0,180.907-20.48,192.853-24.747c0.853-0.853,1.707-1.707,3.413-1.707
	c2.56,0,4.267,1.707,4.267,4.267V303.01C452.267,413.944,362.667,503.544,251.733,503.544z M243.2,384.077
	c-0.853,0-1.707,0-2.56-0.853c-33.28-27.307-39.253-48.64-38.4-61.44c-5.973,5.12-14.507,13.653-23.893,26.453
	c-0.853,0.853-2.56,1.707-3.413,1.707c-1.707,0-2.56-0.853-3.413-2.56c-17.067-33.28-17.92-59.733-2.56-78.507
	c-2.56-2.56-6.827-5.12-11.093-5.12c-1.707,0-2.56-0.853-3.413-1.707c-0.853-0.853-0.853-2.56-0.853-3.413
	c6.827-26.453,27.307-34.133,39.253-36.693c-3.413-4.267-6.827-10.24-6.827-16.213c0-3.413,0.853-6.827,3.413-9.387
	c7.68-7.68,18.773-5.12,24.747-2.56c1.707-8.533,7.68-23.893,20.48-23.893s17.92,11.093,20.48,17.067h22.187
	c15.36,0,29.013,16.213,39.253,28.16c2.56,2.56,4.267,5.12,5.973,6.827c1.707,1.707,5.12,2.56,8.533,3.413
	c7.68,1.707,18.773,4.267,18.773,24.747c0,21.333-16.213,21.333-22.187,21.333c-0.853,0-2.56,0-5.12-0.853
	c-7.68-0.853-22.187-2.56-29.013,3.413c-2.56,2.56-3.413,5.12-3.413,10.24c0,12.8,21.333,12.8,21.333,12.8
	c2.56,0,4.267,1.707,4.267,4.267v34.133c0,1.707-0.853,2.56-1.707,3.413c-0.853,0.853-2.56,0.853-3.413,0.853
	c-1.707,0-36.693-8.533-62.293-34.987c-1.707-1.707-1.707-4.267,0-5.973c1.707-1.707,4.267-1.707,5.973,0
	c17.92,18.773,41.813,28.16,52.053,31.573V305.57c-10.24-0.853-25.6-5.973-25.6-21.333c0-6.827,2.56-11.947,6.827-16.213
	c9.387-8.533,26.453-6.827,35.84-5.12c1.707,0,3.413,0,4.267,0c6.827,0,13.653,0,13.653-12.8c0-13.653-5.12-14.507-11.947-17.067
	c-4.267-0.853-8.533-2.56-12.8-5.973c-1.707-1.707-4.267-4.267-6.827-7.68c-8.533-10.24-21.333-24.747-32.427-24.747h-25.6
	c-1.707,0-3.413-1.707-4.267-3.413c0,0-3.413-13.653-12.8-13.653c-7.68,0-11.947,14.507-12.8,22.187c0,1.707-0.853,2.56-2.56,3.413
	c-0.853,0.853-2.56,0.853-4.267,0c0,0-13.653-6.827-20.48-0.853c-0.853,0.853-0.853,1.707-0.853,3.413
	c0,5.973,6.827,13.653,9.387,16.213c0.853,0.853,1.707,3.413,0.853,4.267c-0.853,1.707-2.56,2.56-4.267,2.56
	c-0.853,0-28.16,0.853-37.547,26.453c7.68,2.56,13.653,8.533,14.507,9.387c1.707,1.707,1.707,4.267,0,5.973
	c-14.507,14.507-15.36,36.693-2.56,64.853c16.213-21.333,30.72-29.013,31.573-29.867c1.707-0.853,3.413-0.853,5.12,0.853
	c1.707,1.707,1.707,3.413,0,5.12c0,0-11.947,20.48,23.893,54.613c-2.56-27.307,11.947-34.987,12.8-34.987
	c1.707-0.853,4.267,0,5.973,1.707c0.853,1.707,0,4.267-1.707,5.973c-0.853,0-13.653,7.68-5.973,37.547
	c0.853,1.707,0,3.413-1.707,4.267C244.907,384.077,244.053,384.077,243.2,384.077z M273.067,239.01c-5.12,0-8.533-3.413-8.533-8.533
	s3.413-8.533,8.533-8.533s8.533,3.413,8.533,8.533S278.187,239.01,273.067,239.01z"/>
</svg>